<svg width="38" height="40" viewBox="0 0 38 40" fill="none" xmlns="http://www.w3.org/2000/svg">
<path d="M37.5001 2.50023V6.38912C37.5001 13.9063 31.4062 20.0002 23.889 20.0002H21.9446V21.9447H31.6668V35.5558C31.6668 37.7044 29.9265 39.4447 27.7779 39.4447H12.2223C10.0737 39.4447 8.33344 37.7044 8.33344 35.5558V21.9447H18.0557V16.1113C18.0557 8.59412 24.1496 2.50023 31.6668 2.50023H37.5001ZM7.36122 0.555786C12.2787 0.555786 16.6265 2.98829 19.269 6.71773C17.2857 9.32523 16.1112 12.5822 16.1112 16.1113V18.0558H15.139C7.08511 18.0558 0.555664 11.5263 0.555664 3.47245V0.555786H7.36122Z" fill="url(#paint0_linear_787_105)"/>
<defs>
<linearGradient id="paint0_linear_787_105" x1="19.0279" y1="0.555786" x2="19.0279" y2="39.4447" gradientUnits="userSpaceOnUse">
<stop stop-color="#1CC91D"/>
<stop offset="1" stop-color="#6CA425"/>
</linearGradient>
</defs>
</svg>
